<?xml version="1.0" standalone="no"?>
<!DOCTYPE svg PUBLIC "-//W3C//DTD SVG 1.1//EN" "http://www.w3.org/Graphics/SVG/1.1/DTD/svg11.dtd" >
<svg xmlns="http://www.w3.org/2000/svg" xmlns:xlink="http://www.w3.org/1999/xlink" version="1.1">
<metadata></metadata>
<defs>
<font id="kozinovaisl" horiz-adv-x="1000" vert-adv-y="1000" >
<font-face units-per-em="1000" ascent="800" descent="-200" />
<missing-glyph horiz-adv-x="500" />
<glyph horiz-adv-x="0" vert-adv-y="0" />
<glyph horiz-adv-x="333" />
<glyph unicode="!" horiz-adv-x="237" d="M69 41q0 23 14 38.5t36 15.5q21 0 34.5 -15t13.5 -39q0 -22 -13.5 -37.5t-36.5 -15.5q-22 0 -35 15.5t-13 37.5zM81 759h74l-12 -556h-50z" />
<glyph unicode="&#x22;" horiz-adv-x="346" d="M66 779h69l-15 -253h-40zM210 779h70l-15 -253h-40z" />
<glyph unicode="#" horiz-adv-x="523" d="M41 235v45h99l23 193h-97v45h103l29 229h50l-29 -229h122l29 229h49l-28 -229h92v-45h-98l-23 -193h97v-44h-104l-29 -236h-50l29 236h-121l-30 -236h-50l29 235h-92zM189 280h123l23 193h-122z" />
<glyph unicode="$" horiz-adv-x="545" d="M78 71l23 47q67 -50 147 -50q65 0 104.5 39t39.5 97q0 53 -32 90.5t-97 67.5q-89 40 -132 82.5t-43 109.5q0 69 43.5 116.5t114.5 58.5v118h50v-116q80 -3 134 -41l-22 -45l-12 6t-14.5 7t-15.5 7t-19.5 7.5t-20 5.5t-24 4t-25.5 1q-61 0 -95.5 -36.5t-34.5 -83.5 q0 -50 32 -81.5t108 -66.5q85 -39 125.5 -86t40.5 -119q0 -69 -44 -122t-121 -65v-120h-50v118q-42 0 -87 14t-73 36z" />
<glyph unicode="%" horiz-adv-x="835" d="M36 516q0 110 47 169t114 59q73 0 113.5 -57t40.5 -161q0 -111 -45 -170t-115 -59q-65 0 -110 56t-45 163zM89 517q0 -76 28 -127t76 -51q53 0 79 51.5t26 132.5q0 78 -25.5 128.5t-78.5 50.5q-51 0 -78 -54t-27 -131zM176 -14l432 760h49l-433 -760h-48zM483 213 q0 110 47 169t114 59q71 0 112.5 -57t41.5 -161q0 -112 -45.5 -171t-114.5 -59q-65 0 -110 56t-45 164zM537 217q0 -78 27.5 -129.5t75.5 -51.5q53 0 78.5 51t25.5 132q0 79 -25 129.5t-78 50.5q-50 0 -77 -53.5t-27 -128.5z" />
<glyph unicode="&#x26;" horiz-adv-x="633" d="M35 199q0 136 147 224l1 3q-65 87 -65 166q0 72 46.5 125.5t126.5 53.5q63 0 105 -41.5t42 -110.5q0 -62 -40 -111t-132 -95v-4q74 -88 211 -246q52 79 76 240h58q-32 -193 -100 -276q104 -110 120 -127h-76q-13 13 -39 40.5t-41 42.5q-99 -95 -224 -95q-96 0 -156 61 t-60 150zM96 207q0 -73 47 -121.5t119 -48.5q107 0 179 83q-22 26 -102 117.5t-128 147.5q-115 -70 -115 -178zM176 597q0 -69 60 -150q73 39 109 77t36 90q0 44 -24.5 76.5t-73.5 32.5q-51 0 -79 -37t-28 -89z" />
<glyph unicode="'" horiz-adv-x="202" d="M66 779h69l-15 -253h-40z" />
<glyph unicode="(" horiz-adv-x="301" d="M75 321q0 265 155 463h55q-152 -193 -152 -464q0 -254 152 -457h-55q-155 196 -155 458z" />
<glyph unicode=")" horiz-adv-x="301" d="M16 -137q152 200 152 461q0 259 -152 460h55q154 -195 154 -460q0 -262 -154 -461h-55z" />
<glyph unicode="*" horiz-adv-x="444" d="M34 559v57l159 -14v2l-98 135l53 31l73 -148h2l70 149l53 -29l-101 -139v-2l165 15v-57l-163 15v-3l99 -133l-54 -32l-71 150h-2l-76 -151l-48 32l100 136l-1 2z" />
<glyph unicode="+" horiz-adv-x="672" d="M45 276v49h265v274h52v-274h265v-49h-265v-276h-52v276h-265z" />
<glyph unicode="," horiz-adv-x="202" d="M26 -142q15 39 34 115.5t27 129.5l78 11q-15 -60 -44.5 -140t-46.5 -110z" />
<glyph unicode="." horiz-adv-x="199" d="M60 41q0 24 14 39.5t36 15.5t35.5 -15.5t13.5 -39.5q0 -22 -14 -37.5t-36 -15.5t-35.5 16t-13.5 37z" />
<glyph unicode="/" horiz-adv-x="388" d="M-8 -45l343 817h58l-345 -817h-56z" />
<glyph unicode="0" horiz-adv-x="545" d="M42 369q0 195 66.5 292.5t171.5 97.5q101 0 162 -96t61 -281q0 -194 -62.5 -294t-173.5 -100q-99 0 -162 97.5t-63 283.5zM106 377q0 -154 44 -246t120 -92q59 0 98 46.5t55.5 120t16.5 171.5q0 153 -41 242t-125 89q-73 0 -120.5 -90t-47.5 -241z" />
<glyph unicode="1" horiz-adv-x="545" d="M124 662l144 85h55v-747h-61v687h-2l-120 -72z" />
<glyph unicode="2" horiz-adv-x="545" d="M51 0v38l68 73q156 157 219.5 249t63.5 183q0 71 -35.5 118t-117.5 47q-76 0 -152 -64l-23 42q81 74 187 74q103 0 153.5 -63t50.5 -145q0 -101 -65 -197.5t-211 -242.5l-57 -60v-2h353v-50h-434z" />
<glyph unicode="3" horiz-adv-x="545" d="M48 37l23 48q66 -46 154 -46q50 0 87 16.5t56 43t28 53.5t9 56q0 84 -60.5 128t-146.5 44h-47v47h48q66 0 121.5 40t55.5 110q0 57 -34 94t-103 37t-139 -51l-22 45q29 23 76 40t95 17q95 0 143 -51t48 -123q0 -59 -37 -107t-101 -71v-2q71 -12 118.5 -64.5t47.5 -131.5 q0 -92 -64 -156.5t-183 -64.5q-52 0 -99 14.5t-74 34.5z" />
<glyph unicode="4" horiz-adv-x="545" d="M19 217v39l338 491h57v-481h108v-49h-108v-217h-60v217h-335zM86 266h268v294q0 63 4 110l-4 1q-18 -34 -58 -101l-210 -302v-2z" />
<glyph unicode="5" horiz-adv-x="545" d="M46 34l22 49q65 -44 149 -44q78 0 131.5 53.5t52.5 136.5q-1 84 -53.5 135t-155.5 51q-56 0 -100 -7l47 339h317v-51h-272l-35 -236q28 5 65 5q107 0 178 -61t71 -166q0 -109 -71.5 -179.5t-176.5 -70.5q-103 0 -169 46z" />
<glyph unicode="6" horiz-adv-x="545" d="M40 300q0 72 17.5 141t53.5 134t102 112t154 63q40 9 71 9l1 -53q-77 0 -139.5 -27.5t-103 -74.5t-64 -102.5t-30.5 -116.5h3q28 43 76.5 72t109.5 29q97 0 155 -66.5t58 -172.5t-60.5 -182.5t-164.5 -76.5q-105 0 -172 83t-67 229zM102 287q0 -113 47.5 -181t131.5 -68 q73 0 117 56.5t44 147.5q0 92 -46 143t-121 51q-69 0 -121 -52t-52 -97z" />
<glyph unicode="7" horiz-adv-x="545" d="M67 696v51h428v-40l-323 -707h-62l322 694v2h-365z" />
<glyph unicode="8" horiz-adv-x="545" d="M46 185q0 71 39.5 124.5t110.5 84.5l-1 4q-61 28 -91 73t-30 96q0 84 58.5 138t146.5 54q92 0 144 -53t52 -126q0 -53 -30.5 -101t-97.5 -79v-3q154 -63 154 -198q0 -93 -67 -152t-163 -59q-99 0 -162 56.5t-63 140.5zM109 198q0 -70 44 -115.5t118 -45.5 q78 0 122.5 44.5t44.5 109.5q0 73 -44.5 115t-134.5 69q-72 -22 -111 -69.5t-39 -107.5zM133 575q-1 -117 153 -158q127 47 127 158q0 56 -34 96t-102 40q-70 0 -107 -41.5t-37 -94.5z" />
<glyph unicode="9" horiz-adv-x="546" d="M51 497q0 107 63.5 184.5t168.5 77.5q99 0 160.5 -83t61.5 -228q0 -181 -83 -302t-218 -148q-56 -11 -94 -9v54q25 -2 79 6q108 16 172.5 103.5t81.5 211.5h-3q-70 -92 -183 -92q-95 0 -150.5 65.5t-55.5 159.5zM114 501q0 -81 43 -130t113 -49t121.5 43.5t51.5 83.5 q0 120 -43.5 190t-123.5 70q-72 0 -117 -59t-45 -149z" />
<glyph unicode=":" horiz-adv-x="199" d="M60 41q0 24 14 39.5t36 15.5t35.5 -15.5t13.5 -39.5q0 -22 -14 -37.5t-36 -15.5t-35.5 16t-13.5 37zM60 457q0 23 14 39t36 16t35.5 -15.5t13.5 -39.5q0 -22 -14 -38t-36 -16t-35.5 16t-13.5 38z" />
<glyph unicode=";" horiz-adv-x="202" d="M27 -142q15 38 34 114t27 131l77 11q-15 -61 -44.5 -140.5t-45.5 -109.5zM71 457q0 24 13.5 39.5t35.5 15.5t35.5 -15.5t13.5 -39.5q0 -22 -13.5 -38t-35.5 -16t-35.5 16t-13.5 38z" />
<glyph unicode="&#x3c;" horiz-adv-x="672" d="M79 278v43l514 279v-58l-456 -242v-2l456 -241v-57z" />
<glyph unicode="=" horiz-adv-x="672" d="M45 172v49h582v-49h-582zM45 387v49h582v-49h-582z" />
<glyph unicode="&#x3e;" horiz-adv-x="672" d="M79 0v57l457 241v2l-457 242v58l514 -278v-45z" />
<glyph unicode="?" horiz-adv-x="428" d="M59 729q55 44 144 44q84 0 128.5 -47t44.5 -114q0 -49 -23.5 -92t-73.5 -106q-66 -82 -66 -158q0 -16 1 -24l2 -32h-57q0 3 -2.5 26t-2.5 29q0 89 71 179q45 55 65 93.5t20 79.5q0 52 -30.5 83t-87.5 31q-67 0 -112 -37zM137 39q0 24 13 40.5t36 16.5q22 0 35.5 -15.5 t13.5 -39.5q0 -22 -13.5 -37.5t-35.5 -15.5q-23 0 -36 15t-13 36z" />
<glyph unicode="@" horiz-adv-x="801" d="M44 231q0 182 112 309.5t291 127.5q142 0 228 -90.5t86 -231.5q0 -125 -57 -198.5t-135 -73.5q-35 0 -58 26t-18 78h-4q-62 -104 -164 -104q-48 0 -82.5 37.5t-34.5 99.5q0 108 77 190t190 82q60 0 111 -21l-41 -204q-8 -37 -8 -71q0 -67 43 -69q49 -1 88.5 61t39.5 157 q0 131 -71 210t-198 79q-145 0 -243.5 -108t-98.5 -282q0 -139 80 -223.5t205 -84.5q101 0 171 42l17 -41q-81 -46 -195 -46q-141 0 -236 95.5t-95 253.5zM262 211q0 -41 21.5 -66.5t60.5 -25.5q52 0 98 55t59 114l28 140q-33 10 -65 10q-83 0 -142.5 -68t-59.5 -159z" />
<glyph unicode="A" horiz-adv-x="653" d="M33 0l265 759h64l265 -759h-65l-90 260h-287l-89 -260h-63zM201 310h255l-86 245q-22 67 -40 141h-3q-13 -60 -39 -137z" />
<glyph unicode="B" horiz-adv-x="566" d="M89 1v747q70 17 154 17q130 0 189 -52t59 -136q0 -56 -36.5 -102t-95.5 -66v-3q62 -14 111 -62.5t49 -130.5q0 -89 -57 -146q-70 -73 -240 -73q-32 0 -133 7zM150 51q25 -6 88 -6q95 0 156 40t61 127q0 85 -62 126t-153 41h-90v-328zM150 428h103q79 0 127 41.5t48 104.5 q0 140 -186 140q-66 0 -92 -8v-278z" />
<glyph unicode="C" horiz-adv-x="628" d="M42 375q0 178 102.5 287t275.5 109q106 0 170 -32l-18 -53q-68 33 -152 33q-145 0 -229.5 -91.5t-84.5 -252.5q0 -155 81.5 -244.5t225.5 -89.5q93 0 164 34l16 -50q-74 -36 -198 -36q-71 0 -133.5 23.5t-112 69t-78.5 121t-29 172.5z" />
<glyph unicode="D" horiz-adv-x="716" d="M89 1v747q97 17 191 17q89 0 159 -21t113.5 -55.5t71.5 -83t39 -99t11 -108.5q0 -35 -4 -69t-15.5 -75.5t-30 -76.5t-51 -70t-75 -59t-105.5 -39t-139 -15q-104 0 -165 7zM151 51q35 -6 113 -6q169 0 257.5 91t88.5 259q0 154 -84 236.5t-247 82.5q-68 0 -128 -12v-651z " />
<glyph unicode="E" horiz-adv-x="519" d="M89 0v759h375v-52h-313v-282h295v-52h-295v-321h330v-52h-392z" />
<glyph unicode="F" horiz-adv-x="514" d="M89 0v759h374v-52h-312v-293h287v-52h-287v-362h-62z" />
<glyph unicode="G" horiz-adv-x="691" d="M42 376q0 170 104.5 280.5t285.5 110.5q106 0 174 -33l-18 -51q-68 32 -159 32q-149 0 -236 -90t-87 -245q0 -158 84 -247.5t228 -89.5q100 0 148 26v261h-168v51h229v-349q-95 -40 -216 -40q-98 0 -171.5 32.5t-115.5 88.5t-62 122t-20 141z" />
<glyph unicode="H" horiz-adv-x="700" d="M89 0v759h62v-331h397v331h62v-759h-62v375h-397v-375h-62z" />
<glyph unicode="I" horiz-adv-x="240" d="M89 0v759h62v-759h-62z" />
<glyph unicode="J" horiz-adv-x="386" d="M7 5l11 50q33 -14 79 -14q75 0 110.5 44t35.5 160v514h62v-524q0 -247 -206 -247q-54 0 -92 17z" />
<glyph unicode="K" horiz-adv-x="564" d="M89 0v759h61v-380h4q30 41 63 81l255 299h76l-280 -322l304 -437h-74l-272 395l-76 -85v-310h-61z" />
<glyph unicode="L" horiz-adv-x="500" d="M89 0v759h62v-707h328v-52h-390z" />
<glyph unicode="M" horiz-adv-x="866" d="M69 0l54 759h73l153 -421q52 -144 81 -249h4q23 89 82 248l158 422h76l50 -759h-61l-22 355q-14 228 -14 322v12h-3q-34 -108 -99 -284l-151 -404h-44l-141 394q-67 189 -94 294h-3q-3 -146 -16 -344l-23 -345h-60z" />
<glyph unicode="N" horiz-adv-x="708" d="M89 0v759h61l277 -433q97 -155 139 -242l2 1q-9 117 -9 311v363h60v-759h-59l-273 429q-105 169 -143 248l-3 -1q7 -111 7 -308v-368h-59z" />
<glyph unicode="O" horiz-adv-x="741" d="M42 372q0 184 94 291.5t240 107.5q145 0 234 -105t89 -280q0 -192 -95.5 -295t-236.5 -103q-142 0 -233.5 104t-91.5 280zM106 374q0 -86 29.5 -161t91 -124.5t142.5 -49.5q124 0 195 100t71 244q0 61 -16 119.5t-47 108t-83 79.5t-117 30q-67 0 -119.5 -30t-83.5 -80 t-47 -110t-16 -126z" />
<glyph unicode="P" horiz-adv-x="561" d="M89 0v750q81 15 163 15q56 0 100 -11t71 -30t45.5 -40.5t27 -47.5t12 -45.5t3.5 -39.5q0 -66 -25 -114.5t-67 -74t-87 -37.5t-95 -12q-57 0 -87 8v-321h-61zM150 374q30 -10 90 -10q98 0 153.5 47t55.5 134q0 86 -54.5 127.5t-143.5 41.5q-65 0 -101 -9v-331z" />
<glyph unicode="Q" horiz-adv-x="741" d="M42 372q0 186 94 292.5t241 106.5q143 0 232.5 -105t89.5 -279q0 -150 -61 -246t-167 -130v-4q166 -41 235 -52l-18 -55q-147 36 -279 77q-33 11 -41 11q-141 3 -233.5 104.5t-92.5 279.5zM106 373q0 -86 31 -161t92 -124t140 -49q83 0 144.5 48.5t91.5 126t30 170.5 q0 48 -9.5 95t-30.5 91t-51 77t-73.5 53t-95.5 20q-54 0 -99.5 -20t-76.5 -53.5t-52 -78.5t-31 -94t-10 -101z" />
<glyph unicode="R" horiz-adv-x="565" d="M89 0v749q74 16 165 16q140 0 203 -62q54 -54 54 -138q0 -74 -39 -123.5t-107 -73.5v-2q87 -27 116 -162q36 -167 56 -204h-64q-17 31 -49 185q-18 83 -56 121.5t-109 38.5h-109v-345h-61zM150 394h112q85 0 136 44.5t51 117.5q0 46 -17 78.5t-46 49t-61.5 24t-71.5 7.5 q-71 0 -103 -9v-312z" />
<glyph unicode="S" horiz-adv-x="519" d="M47 38l21 52q71 -49 163 -49q81 0 127.5 41t46.5 109q0 62 -34 102.5t-113 72.5q-193 69 -193 212q0 84 62.5 138.5t160.5 54.5q96 0 150 -35l-21 -53q-50 36 -133 36q-80 0 -118.5 -40t-38.5 -92q0 -59 35.5 -96t117.5 -71q97 -40 142.5 -91t45.5 -132q0 -90 -64 -149 t-178 -59q-49 0 -99.5 14t-79.5 35z" />
<glyph unicode="T" horiz-adv-x="521" d="M-7 707v52h536v-52h-237v-707h-62v707h-237z" />
<glyph unicode="U" horiz-adv-x="695" d="M89 296v462h62v-460q0 -132 53 -195.5t139 -63.5q94 0 147.5 64.5t53.5 194.5v460h62v-455q0 -163 -74 -239t-192 -76q-111 0 -181 73t-70 235z" />
<glyph unicode="V" horiz-adv-x="576" d="M3 759h66l127 -398q59 -180 86 -291h3q24 101 92 291l140 398h66l-272 -759h-62z" />
<glyph unicode="W" horiz-adv-x="916" d="M17 759h64l105 -418q45 -184 60 -262h3q11 65 66 263l118 417h60l107 -414q47 -182 59 -266h3q16 81 66 263l117 417h63l-220 -759h-60l-110 429q-41 155 -56 255h-2q-14 -81 -65 -255l-122 -429h-60z" />
<glyph unicode="X" horiz-adv-x="608" d="M32 0l234 385l-225 374h71l116 -197q31 -51 75 -129h2q14 26 76 128l119 198h72l-234 -369l237 -390h-71l-110 184q-65 103 -94 155h-2q-26 -48 -91 -156l-104 -183h-71z" />
<glyph unicode="Y" horiz-adv-x="566" d="M17 759h70l117 -221q66 -126 83 -163h3q23 52 84 164l122 220h70l-251 -431v-328h-62v328z" />
<glyph unicode="Z" horiz-adv-x="595" d="M37 0v39l438 665v3h-402v52h481v-40l-438 -663v-4h443v-52h-522z" />
<glyph unicode="[" horiz-adv-x="301" d="M99 -126v899h191v-45h-137v-809h137v-45h-191z" />
<glyph unicode="\" horiz-adv-x="385" d="M-3 772h58l338 -817h-58z" />
<glyph unicode="]" horiz-adv-x="301" d="M12 -81h137v809h-137v45h191v-899h-191v45z" />
<glyph unicode="^" horiz-adv-x="672" d="M79 220l230 512h53l231 -512h-57l-199 454h-3l-198 -454h-57z" />
<glyph unicode="a" horiz-adv-x="508" d="M42 138q0 96 82 148q81 51 235 50h6q0 24 -1 39t-8 42.5t-19.5 43.5t-39.5 29.5t-65 13.5q-77 0 -133 -40l-18 44q70 46 159 46q187 0 187 -214v-211q0 -82 7 -129h-57l-7 75h-3q-22 -36 -66 -61.5t-101 -25.5q-75 0 -116.5 44.5t-41.5 105.5zM107 147q0 -53 29.5 -81 t73.5 -28q41 0 73 15.5t49 38.5t25.5 44.5t8.5 38.5v112q-51 0 -89.5 -4.5t-81 -18t-65.5 -43t-23 -74.5z" />
<glyph unicode="b" horiz-adv-x="612" d="M83 0q4 74 4 128v671h62v-354h2q56 109 190 109q100 0 163 -77t63 -200q0 -139 -71 -214t-166 -75q-125 0 -185 106h-3l-5 -94h-54zM149 209q0 -63 47 -116.5t125 -53.5q86 0 134.5 65.5t48.5 170.5q0 96 -48 162t-131 66q-74 0 -125 -57t-51 -128v-109z" />
<glyph unicode="c" horiz-adv-x="491" d="M45 265q0 128 77.5 208.5t199.5 80.5q87 0 136 -32l-19 -50q-55 31 -122 31q-99 0 -154 -67.5t-55 -166.5q0 -103 57 -166t147 -63q60 0 129 31l14 -48q-68 -34 -153 -34q-115 0 -186 76.5t-71 199.5z" />
<glyph unicode="d" horiz-adv-x="603" d="M45 262q0 132 69 212t170 80q61 0 104.5 -26.5t64.5 -65.5h2v336h62v-670q0 -66 5 -128h-56l-4 99h-3q-22 -48 -70 -79.5t-116 -31.5q-99 0 -163.5 76t-64.5 198zM108 266q0 -96 46.5 -161.5t132.5 -65.5q77 0 122.5 57t45.5 122v108q0 80 -49 128.5t-116 48.5 q-83 0 -132.5 -67t-49.5 -170z" />
<glyph unicode="e" horiz-adv-x="538" d="M45 261q0 132 67 212.5t173 80.5q49 0 87.5 -18t60.5 -44.5t36.5 -61t19.5 -64t5 -58.5q0 -12 -2 -36h-386q0 -119 55.5 -176t142.5 -57q83 0 145 30l15 -46q-63 -34 -168 -34q-115 0 -183 75.5t-68 196.5zM109 320h322q0 32 -7 62t-23 58.5t-47.5 46t-74.5 17.5 q-53 0 -91.5 -30t-56 -69.5t-22.5 -84.5z" />
<glyph unicode="f" horiz-adv-x="297" d="M16 492v49h77v30q0 131 59 193q47 47 122 47q45 0 79 -18l-16 -48q-32 15 -66 15q-116 0 -116 -188v-31h140v-49h-140v-492h-62v492h-77z" />
<glyph unicode="g" horiz-adv-x="604" d="M45 266q0 134 71.5 211t167.5 77q68 0 111 -29.5t63 -70.5h2l3 87h57q-5 -65 -5 -143v-320q0 -180 -72 -249q-67 -64 -182 -64q-108 0 -170 44l20 50q67 -43 157 -43q186 0 186 211v73h-2q-23 -44 -69 -72t-111 -28q-98 0 -162.5 76.5t-64.5 189.5zM108 272 q0 -96 47.5 -159t133.5 -63q70 0 117.5 51.5t47.5 121.5v111q0 67 -46 118t-118 51q-81 0 -131.5 -63.5t-50.5 -167.5z" />
<glyph unicode="h" horiz-adv-x="595" d="M87 0v799h62v-349h2q23 45 72 74.5t105 29.5q20 0 41 -4.5t48 -19t47.5 -38t34.5 -66t14 -97.5v-329h-62v322q0 79 -33.5 129t-106.5 50q-53 0 -96 -34t-59 -83q-7 -19 -7 -51v-333h-62z" />
<glyph unicode="i" horiz-adv-x="237" d="M72 695q0 20 13.5 34.5t33.5 14.5q21 0 33.5 -14t12.5 -35q0 -22 -13.5 -36t-33.5 -14t-33 14.5t-13 35.5zM87 0v541h62v-541h-62z" />
<glyph unicode="j" horiz-adv-x="243" d="M-52 -185q41 3 69 16t43.5 31t23.5 54t10 68.5t2 89.5v467h62v-502q0 -79 -12.5 -129.5t-45.5 -86.5q-27 -29 -69 -43.5t-76 -14.5zM80 695q0 20 13.5 34.5t34.5 14.5q20 0 32.5 -14.5t12.5 -34.5q0 -22 -13 -36t-34 -14q-20 0 -33 14.5t-13 35.5z" />
<glyph unicode="k" horiz-adv-x="479" d="M87 0v799h62v-516h2q21 27 50 60l181 199h75l-212 -225l241 -317h-75l-209 279l-53 -57v-222h-62z" />
<glyph unicode="l" horiz-adv-x="237" d="M87 0v799h62v-799h-62z" />
<glyph unicode="m" horiz-adv-x="907" d="M84 541h56l4 -93h2q59 106 172 106q53 0 93 -31.5t58 -83.5h2q57 115 180 115q26 0 52 -9t55.5 -32t48 -72t18.5 -119v-322h-61v315q0 88 -34 137.5t-100 49.5q-58 0 -100.5 -47.5t-42.5 -109.5v-345h-61v338q0 73 -33 118.5t-94 45.5q-59 0 -104.5 -50t-45.5 -119v-333 h-61v409q0 48 -4 132z" />
<glyph unicode="n" horiz-adv-x="595" d="M83 541h56l5 -94h2q23 46 71 76.5t110 30.5q26 0 53.5 -8.5t59.5 -30.5t52.5 -70.5t20.5 -116.5v-328h-62v320q0 80 -33.5 131t-108.5 51q-67 0 -113.5 -50.5t-46.5 -116.5v-335h-62v409q0 48 -4 132z" />
<glyph unicode="o" horiz-adv-x="590" d="M45 266q0 134 73.5 211t179.5 77q111 0 179 -77t68 -201q0 -73 -22.5 -130t-60 -90.5t-81.5 -50.5t-90 -17q-107 0 -176.5 76t-69.5 202zM108 269q0 -97 53 -164t132 -67q81 0 135 67.5t54 167.5q0 39 -11 78t-32 74t-58.5 57t-84.5 22q-92 0 -140 -70.5t-48 -164.5z" />
<glyph unicode="p" horiz-adv-x="612" d="M83 541h57l5 -98h2q60 111 193 111q100 0 163.5 -76.5t63.5 -198.5q0 -140 -70 -215.5t-170 -75.5q-56 0 -103 25t-73 70h-2v-306h-62v592q0 72 -4 172zM149 213q0 -71 48.5 -122.5t122.5 -51.5q87 0 136 65.5t49 171.5q0 95 -48.5 161t-131.5 66q-79 0 -127.5 -59.5 t-48.5 -124.5v-106z" />
<glyph unicode="q" horiz-adv-x="603" d="M45 262q0 74 22 132.5t58 92t77.5 50.5t85.5 17q62 0 106 -28.5t64 -71.5h3l2 87h58q-4 -80 -4 -142v-622h-62v313h-3q-21 -44 -68 -73t-112 -29q-97 0 -162 76.5t-65 197.5zM108 267q0 -97 45 -162.5t133 -65.5q54 0 94 30t57.5 68.5t17.5 75.5v115q0 78 -48.5 126.5 t-115.5 48.5q-84 0 -133.5 -65.5t-49.5 -170.5z" />
<glyph unicode="r" horiz-adv-x="333" d="M83 542h56l2 -108h4q18 52 58.5 86t91.5 34q4 0 7.5 -0.5t8 -1.5t7.5 -1v-59q-8 2 -27 2q-64 0 -103 -58.5t-39 -136.5v-299h-62v381q0 89 -4 161z" />
<glyph unicode="s" horiz-adv-x="417" d="M47 26l21 50q61 -37 120 -37q58 0 89 28t31 71q0 41 -25.5 67.5t-83.5 50.5q-137 54 -137 149q0 62 46.5 105.5t122.5 43.5q69 0 121 -34l-23 -49q-48 33 -105 33q-47 0 -74 -26t-27 -64t24 -60.5t83 -47.5q70 -28 104.5 -65t34.5 -95q0 -73 -51 -115t-133 -42 q-77 0 -138 37z" />
<glyph unicode="t" horiz-adv-x="346" d="M21 492v49h88v99l61 22v-121h148v-49h-148v-341q0 -111 77 -111q34 0 59 9l6 -48q-29 -12 -75 -12q-40 0 -67 14.5t-39.5 40.5t-17 53t-4.5 62v333h-88z" />
<glyph unicode="u" horiz-adv-x="589" d="M83 223v318h62v-305q0 -195 135 -195q59 0 109 44.5t50 118.5v338h62v-406q0 -68 5 -136h-57l-4 92h-3q-23 -42 -68.5 -73t-110.5 -31q-31 0 -59.5 9.5t-57.5 33.5t-46 73t-17 119z" />
<glyph unicode="v" horiz-adv-x="505" d="M17 542h66l120 -331q28 -72 50 -142h2q15 48 51 142l122 331h65l-214 -542h-56z" />
<glyph unicode="w" horiz-adv-x="802" d="M24 542h64l85 -300q30 -106 45 -171h3q19 73 52 170l102 301h56l97 -298q30 -87 51 -173h4q8 43 46 172l91 299h63l-177 -542h-54l-97 294q-35 101 -53 182h-2q-19 -82 -56 -184l-101 -292h-55z" />
<glyph unicode="x" horiz-adv-x="481" d="M12 0l194 277l-183 265h69l88 -129q42 -65 59 -92h3q20 35 60 92l86 129h69l-184 -264l190 -278h-71l-91 134q-18 27 -64 101h-2q-15 -27 -64 -101l-89 -134h-70z" />
<glyph unicode="y" horiz-adv-x="493" d="M13 541h66l134 -346q19 -52 38 -116h2q14 47 39 118l124 344h66l-154 -394q-23 -60 -37.5 -95t-36.5 -82.5t-41 -76.5t-44.5 -60t-55 -50.5t-64.5 -30.5l-19 52q45 17 83 51t58.5 68t32 60t11.5 34q0 7 -6 23z" />
<glyph unicode="z" horiz-adv-x="450" d="M18 0v37l277 373q24 32 62 79v2h-315v51h389v-41l-276 -371q-35 -48 -59 -77v-2h338v-51h-416z" />
<glyph unicode="{" horiz-adv-x="301" d="M31 303l1 42q54 -1 73.5 23.5t19.5 64.5q0 33 -10 97q-11 73 -11 97q0 146 173 146v-46q-20 0 -31.5 -0.5t-30.5 -6t-29.5 -16t-18.5 -31.5t-8 -51q0 -32 10 -88q9 -69 9 -93q0 -93 -73 -115v-2q73 -22 73 -117q0 -38 -10 -92q-9 -67 -9 -90q0 -37 10.5 -60.5t32 -32.5 t36 -11t39.5 -2v-45q-23 0 -38.5 1t-43.5 9t-45.5 23t-31.5 46t-14 74q0 33 12 95q9 70 9 93q0 89 -94 88z" />
<glyph unicode="|" horiz-adv-x="242" d="M95 -281v1126h53v-1126h-53z" />
<glyph unicode="}" horiz-adv-x="301" d="M24 -81q25 0 39.5 2t36 11t32 32.5t10.5 60.5q0 36 -9 90q-10 54 -10 92q0 95 74 117v2q-74 20 -74 115q0 31 10 93q9 50 9 88q0 30 -8.5 51t-18.5 31.5t-29 16t-30.5 6t-31.5 0.5v46q173 0 173 -146q0 -33 -10 -97t-10 -97q0 -40 19 -64.5t74 -23.5v-42q-93 1 -93 -88 q0 -31 10 -93t10 -95q0 -43 -14 -74t-31.5 -46t-45.5 -23t-43.5 -9t-38.5 -1v45z" />
<glyph unicode="&#xa1;" horiz-adv-x="237" d="M69 493q0 23 14 38.5t36 15.5q23 0 35.5 -15.5t12.5 -38.5q0 -22 -13.5 -37.5t-36.5 -15.5q-21 0 -34.5 15t-13.5 38zM81 -221l12 552h50l12 -552h-74z" />
<glyph unicode="&#xa2;" horiz-adv-x="545" d="M71 374q0 114 60.5 190t158.5 90v118h50v-116q74 0 127 -31l-20 -48q-59 32 -123 32q-87 0 -140 -68.5t-53 -164.5q0 -102 53 -165t134 -63q68 0 134 32l14 -43q-51 -32 -126 -36v-119h-50v119q-60 6 -104 32t-68.5 65t-35.5 83t-11 93z" />
<glyph unicode="&#xa3;" horiz-adv-x="545" d="M63 0v36q56 32 92.5 93t36.5 127q0 58 -7 101h-117v46h111q-15 93 -15 139q0 98 55 157.5t139 59.5q72 0 116 -28l-18 -48q-40 25 -101 25q-65 0 -98 -44.5t-33 -117.5q0 -71 14 -143h163v-46h-156q4 -54 4 -84q0 -44 -6 -72q-21 -87 -91 -149v-2h351v-50h-440z" />
<glyph unicode="&#xa4;" horiz-adv-x="545" d="M36 161l75 76q-41 55 -41 139q0 85 44 144l-78 77l38 39l72 -81q49 49 126 49q80 0 127 -49l78 81l37 -38l-83 -78q40 -55 40 -137q0 -86 -39 -142l79 -80l-37 -39l-75 83q-48 -51 -129 -51q-35 0 -70 13t-56 34l-72 -79zM124 377q0 -84 45.5 -130t99.5 -46 q59 0 102.5 45.5t43.5 135.5q0 70 -38 123t-106 53q-69 0 -108 -53.5t-39 -127.5z" />
<glyph unicode="&#xa5;" horiz-adv-x="545" d="M26 747h66l133 -264q24 -50 43 -96h4q16 45 44 98l138 262h65l-202 -358h150v-42h-173v-94h173v-41h-173v-212h-59v212h-171v41h171v94h-171v42h151z" />
<glyph unicode="&#xa6;" horiz-adv-x="242" d="M95 -197v394h53v-394h-53zM95 367v393h53v-393h-53z" />
<glyph unicode="&#xa7;" d="M280 404q0 67 71 127q-18 13 -28 37.5t-10 47.5q0 65 54 110t146 45q102 0 174 -49l-23 -44q-24 19 -68.5 34.5t-96.5 15.5q-56 0 -94.5 -32t-38.5 -69q0 -25 12.5 -44t38.5 -33t51.5 -22.5t66.5 -18.5q184 -46 184 -159q0 -41 -17 -78.5t-44 -61.5q16 -13 27 -40t11 -57 q0 -70 -58.5 -119.5t-152.5 -49.5q-120 0 -177 51l26 42q57 -50 155 -50q71 0 113 34.5t42 85.5q0 45 -35 73t-137 58q-104 31 -148 68t-44 98zM331 407q0 -35 28 -60.5t123 -56.5q111 -36 144 -57q42 42 42 103q0 47 -33 73.5t-109 47.5q-106 30 -142 50q-53 -48 -53 -100z " />
<glyph unicode="&#xa8;" d="M353 860q0 19 13.5 33.5t32.5 14.5q18 0 31 -14t13 -34q0 -18 -12.5 -32.5t-33.5 -14.5t-32.5 14.5t-11.5 32.5zM558 860q0 19 13.5 33.5t31.5 14.5q19 0 32 -14t13 -34q0 -18 -12.5 -32.5t-34.5 -14.5q-19 0 -31 14.5t-12 32.5z" />
<glyph unicode="&#xa9;" horiz-adv-x="763" d="M43 382q0 83 31.5 151.5t82.5 110t109.5 64t116.5 22.5q142 0 239.5 -101.5t97.5 -245.5q0 -146 -97 -247.5t-239 -101.5q-144 0 -242.5 101.5t-98.5 246.5zM90 378q0 -133 85.5 -219.5t207.5 -86.5q126 -1 208 90t82 220q0 126 -80.5 218t-208.5 92q-124 0 -209 -89.5 t-85 -224.5zM197 376q0 95 62.5 152.5t150.5 57.5q84 0 124 -30l-11 -37q-50 28 -110 28q-82 0 -124.5 -47.5t-42.5 -120.5t44 -120.5t124 -47.5q69 0 115 32l12 -35q-52 -36 -138 -36q-95 0 -150.5 58t-55.5 146z" />
<glyph unicode="&#xaa;" horiz-adv-x="367" d="M38 400q0 60 58.5 95t165.5 31q0 96 -90 96q-54 0 -91 -29l-15 36q47 37 117 37q130 0 130 -157v-123q0 -52 6 -87h-48l-5 52h-3q-40 -57 -112 -57q-53 0 -83 30.5t-30 75.5zM91 402q0 -31 21 -48.5t51 -17.5q44 0 71.5 29t27.5 47v74q-171 5 -171 -84z" />
<glyph unicode="&#xab;" horiz-adv-x="443" d="M33 284l155 203h61l-156 -203l156 -203h-61zM200 284l155 203h61l-156 -203l156 -203h-61z" />
<glyph unicode="&#xac;" horiz-adv-x="672" d="M45 390v49h582v-294h-53v245h-529z" />
<glyph unicode="&#xad;" horiz-adv-x="672" d="M45 278v49h582v-49h-582z" />
<glyph unicode="&#xae;" horiz-adv-x="447" d="M41 589q0 76 53.5 127.5t129.5 51.5q78 0 131 -52t53 -127q0 -77 -53 -129.5t-131 -52.5q-77 0 -130 53t-53 129zM80 589q0 -65 43.5 -107t101.5 -42q60 0 101 43t41 105q0 61 -41 104.5t-102 43.5q-60 0 -102 -43.5t-42 -103.5zM157 492v186q36 6 65 6q79 0 79 -54 q0 -32 -37 -43v-3q23 -8 31 -46q8 -36 15 -46h-38q-7 8 -15 48q-5 21 -17.5 25.5t-46.5 4.5v-78h-36zM193 597q23 0 34.5 1t23.5 7.5t12 20.5q0 30 -44 30q-16 0 -26 -2v-57z" />
<glyph unicode="&#xb0;" d="M77 670q0 52 37.5 89.5t89.5 37.5q53 0 90.5 -37.5t37.5 -89.5t-38 -90t-90 -38t-89.5 37.5t-37.5 90.5zM113 670q0 -38 26.5 -64.5t64.5 -26.5t64.5 26.5t26.5 64.5t-26.5 64.5t-64.5 26.5t-64.5 -27t-26.5 -64z" />
<glyph unicode="&#xb1;" d="M132 23v50h738v-50h-738zM132 463v49h343v288h50v-288h343v-49h-343v-288h-50v288h-343z" />
<glyph unicode="&#xb2;" horiz-adv-x="322" d="M11 496v31l70 66q77 73 111.5 121.5t34.5 93.5q0 39 -23.5 64t-70.5 25q-46 0 -92 -36l-18 34q49 47 123 47q69 0 102.5 -38t33.5 -85q0 -60 -38.5 -114t-117.5 -124l-39 -38v-2h203v-45h-279z" />
<glyph unicode="&#xb3;" horiz-adv-x="315" d="M8 521l18 41q40 -29 100 -29q54 0 80.5 27t26.5 61q0 26 -12.5 44.5t-28 27t-41.5 13.5t-39.5 5.5t-34.5 0.5v39h29q39 0 74 21.5t35 62.5q0 27 -19 46t-57 19q-50 0 -91 -31l-17 38q52 35 114 35q63 0 94 -30t31 -74q0 -32 -22 -59.5t-61 -42.5v-2q45 -8 73 -38.5 t28 -73.5q0 -53 -43.5 -92t-120.5 -39q-70 0 -116 30z" />
<glyph unicode="&#xb4;" d="M458 798l107 132h89l-150 -132h-46z" />
<glyph unicode="&#xb5;" horiz-adv-x="593" d="M87 -25v570h62v-333q0 -74 33.5 -122t105.5 -48q63 0 109.5 48.5t46.5 115.5v339h62v-411q0 -50 12 -72t43 -23l-8 -49q-10 -2 -21 -2q-33 0 -56.5 23.5t-26.5 74.5h-3q-18 -37 -61.5 -67t-100.5 -30q-99 0 -137 73v-79q0 -152 13 -206h-56q-17 52 -17 198z" />
<glyph unicode="&#xb6;" d="M245 511q0 47 14 88t47 78.5t97 59.5t153 22q87 0 122 -8v-809h-47v771h-87v-771h-47v349q-110 0 -181 61.5t-71 158.5z" />
<glyph unicode="&#xb9;" horiz-adv-x="243" d="M24 888l96 48h46v-440h-52v390h-2l-77 -38z" />
<glyph unicode="&#xba;" horiz-adv-x="380" d="M19 477q0 85 51.5 137t120.5 52q79 0 125 -51.5t46 -132.5q0 -91 -52 -139.5t-120 -48.5q-74 0 -122.5 50.5t-48.5 132.5zM71 478q0 -60 36 -101t83 -41q52 0 85.5 40.5t33.5 103.5q0 54 -30 99t-89 45q-58 0 -88.5 -45t-30.5 -101z" />
<glyph unicode="&#xbb;" horiz-adv-x="443" d="M26 487h60l156 -203l-156 -203h-59l155 203zM192 487h61l156 -203l-156 -203h-59l155 203z" />
<glyph unicode="&#xbc;" horiz-adv-x="805" d="M52 691l96 48h46v-440h-52v390h-2l-76 -38zM135 -12l430 757h48l-430 -757h-48zM420 122v31l226 292h48v-281h71v-41h-70v-123h-51v122h-224zM481 164h163v156q0 42 4 66h-3q-28 -46 -36 -58l-128 -163v-1z" />
<glyph unicode="&#xbd;" horiz-adv-x="805" d="M34 691l96 48h46v-440h-52v390h-2l-76 -38zM114 -12l431 757h48l-430 -757h-49zM466 0v31l70 66q76 73 111 121.5t35 92.5q0 39 -23.5 64.5t-70.5 25.5q-43 0 -92 -36l-19 34q50 46 124 46q69 0 102.5 -37.5t33.5 -84.5q0 -60 -39 -115t-117 -124l-40 -37v-2h204v-45 h-279z" />
<glyph unicode="&#xbe;" horiz-adv-x="805" d="M36 324l17 41q42 -29 101 -29q54 0 80 26.5t26 61.5q0 26 -12.5 44.5t-28 27t-41 13.5t-39 5.5t-35.5 0.5v39h30q39 0 74 21.5t35 62.5q0 26 -19.5 45t-57.5 19q-45 0 -90 -31l-17 38q56 35 113 35q64 0 94.5 -30t30.5 -74q0 -32 -21.5 -59t-60.5 -42v-2q44 -8 72 -39 t28 -73q0 -54 -43 -92.5t-120 -38.5q-72 0 -116 30zM178 -12l429 756h49l-429 -756h-49zM431 122v31l226 292h49v-281h71v-41h-71v-123h-51v122h-224zM492 164h163v156q0 42 4 66h-3q-28 -46 -36 -58l-128 -163v-1z" />
<glyph unicode="&#xbf;" horiz-adv-x="428" d="M67 -78q0 50 23.5 94.5t73.5 105.5q39 49 54 91t11 90l-2 32h56q7 -37 7 -57q0 -86 -72 -177q-45 -55 -65 -93.5t-20 -79.5q0 -52 30.5 -82.5t87.5 -30.5q64 0 113 37l20 -46q-26 -20 -66.5 -32t-77.5 -12q-84 0 -128.5 46.5t-44.5 113.5zM207 493q0 23 14 38.5t36 15.5 q23 0 36 -16t13 -38t-14 -38t-36 -16t-35.5 15.5t-13.5 38.5z" />
<glyph unicode="&#xc0;" horiz-adv-x="653" d="M33 0l265 759h64l265 -759h-65l-90 260h-287l-89 -260h-63zM162 927h90l109 -127h-52zM201 310h255l-86 245q-22 67 -40 141h-3q-13 -60 -39 -137z" />
<glyph unicode="&#xc1;" horiz-adv-x="653" d="M33 0l265 759h64l265 -759h-65l-90 260h-287l-89 -260h-63zM201 310h255l-86 245q-22 67 -40 141h-3q-13 -60 -39 -137zM292 800l109 127h89l-145 -127h-53z" />
<glyph unicode="&#xc2;" horiz-adv-x="653" d="M33 0l265 759h64l265 -759h-65l-90 260h-287l-89 -260h-63zM185 800l115 122h49l119 -122h-64l-78 81h-3l-78 -81h-60zM201 310h255l-86 245q-22 67 -40 141h-3q-13 -60 -39 -137z" />
<glyph unicode="&#xc3;" horiz-adv-x="653" d="M33 0l265 759h64l265 -759h-65l-91 260h-286l-89 -260h-63zM196 806q-1 43 18 71.5t53 28.5q24 0 63 -23q36 -20 56 -20q14 0 21.5 9t8.5 34h40q0 -94 -69 -94q-25 0 -66 22q-44 22 -54 22q-26 0 -31 -50h-40zM200 310h255l-85 245q-22 67 -40 141h-3q-9 -42 -39 -137z " />
<glyph unicode="&#xc4;" horiz-adv-x="653" d="M33 0l265 759h64l265 -759h-65l-90 260h-287l-89 -260h-63zM184 863q0 19 13 33t31 14q20 0 32.5 -13.5t12.5 -33.5t-12 -33.5t-32 -13.5q-21 0 -33 14t-12 33zM200 310h255l-85 245q-18 53 -40 141h-3q-11 -51 -40 -137zM380 863q0 19 13 33t31 14q20 0 32 -13.5 t12 -33.5t-12 -33.5t-32 -13.5q-21 0 -32.5 14t-11.5 33z" />
<glyph unicode="&#xc5;" horiz-adv-x="653" d="M33 0l265 759h64l265 -759h-65l-90 260h-287l-89 -260h-63zM201 310h255l-86 245q-22 67 -40 141h-3q-13 -60 -39 -137zM225 881q0 41 29 69.5t75 28.5t74.5 -28.5t28.5 -69.5q0 -40 -30 -67.5t-73 -27.5q-45 0 -74.5 27.5t-29.5 67.5zM272 881q0 -24 16 -42.5t39 -18.5 q25 0 41 18t16 44q0 27 -16 45t-41 18q-26 0 -40.5 -19t-14.5 -45z" />
<glyph unicode="&#xc6;" horiz-adv-x="827" d="M-2 0l351 759h416l-1 -52h-320l32 -283h276v-52h-269l38 -320h269v-52h-322l-36 296h-232l-137 -296h-65zM221 347h205l-26 236q-1 15 -6.5 62t-6.5 69h-5q-7 -18 -53 -125z" />
<glyph unicode="&#xc7;" horiz-adv-x="628" d="M42 374q0 178 102.5 287.5t275.5 109.5h1q106 0 170 -32l-19 -53q-68 33 -152 33q-145 0 -229.5 -91.5t-84.5 -252.5q0 -155 81.5 -244.5t225.5 -89.5q94 0 164 34l16 -50q-74 -36 -197 -36q-24 0 -50 3l-32 -52q33 -5 55 -26.5t22 -52.5q0 -42 -30.5 -64t-74.5 -22 t-73 19l14 41q27 -16 62 -16q22 0 36 9.5t14 28.5q0 41 -87 52l53 90q-117 26 -190 121.5t-73 253.5z" />
<glyph unicode="&#xc8;" horiz-adv-x="519" d="M89 0v759h375v-52h-313v-282h295v-52h-295v-321h330v-52h-392zM96 927h89l109 -127h-52z" />
<glyph unicode="&#xc9;" horiz-adv-x="519" d="M89 0v759h375v-52h-313v-282h295v-52h-295v-321h330v-52h-392zM226 800l109 127h88l-145 -127h-52z" />
<glyph unicode="&#xca;" horiz-adv-x="519" d="M89 0v759h375v-52h-313v-282h295v-52h-295v-321h330v-52h-392zM118 800l115 122h50l119 -122h-65l-78 81h-2l-79 -81h-60z" />
<glyph unicode="&#xcb;" horiz-adv-x="519" d="M89 0v759h375v-52h-313v-282h295v-52h-295v-321h330v-52h-392zM118 863q0 19 13 33t31 14q20 0 32.5 -13.5t12.5 -33.5t-12 -33.5t-32 -13.5q-21 0 -33 14t-12 33zM313 863q0 19 13 33t31 14q20 0 32 -13.5t12 -33.5t-12 -33.5t-32 -13.5q-21 0 -32.5 14t-11.5 33z" />
<glyph unicode="&#xcc;" horiz-adv-x="240" d="M-44 927h90l109 -127h-52zM89 0v759h62v-759h-62z" />
<glyph unicode="&#xcd;" horiz-adv-x="240" d="M86 800l109 127h89l-146 -127h-52zM89 0v759h62v-759h-62z" />
<glyph unicode="&#xce;" horiz-adv-x="240" d="M-22 800l116 122h49l119 -122h-64l-78 81h-3l-78 -81h-61zM89 0v759h62v-759h-62z" />
<glyph unicode="&#xcf;" horiz-adv-x="240" d="M-22 863q0 19 13 33t31 14q20 0 32.5 -13.5t12.5 -33.5t-12 -33.5t-32 -13.5q-21 0 -33 14t-12 33zM89 0v759h62v-759h-62zM174 863q0 19 13 33t31 14q20 0 32 -13.5t12 -33.5t-12 -33.5t-32 -13.5q-21 0 -32.5 14t-11.5 33z" />
<glyph unicode="&#xd0;" horiz-adv-x="719" d="M-5 361v50h98v338q100 16 191 16q94 0 166 -23t114.5 -59t69 -86.5t35.5 -97.5t9 -100q0 -51 -7.5 -99t-34.5 -106t-70.5 -100t-123 -71t-184.5 -29q-104 0 -165 7v360h-98zM155 51q43 -6 112 -6q170 0 258.5 91.5t88.5 259.5q0 149 -82.5 233.5t-249.5 84.5 q-70 0 -127 -11v-292h223v-50h-223v-310z" />
<glyph unicode="&#xd1;" horiz-adv-x="708" d="M89 0v759h61l277 -433q97 -155 139 -242l2 1q-9 117 -9 311v363h60v-759h-59l-273 429q-105 169 -143 248l-3 -1q7 -111 7 -308v-368h-59zM224 806q-1 43 18 71.5t53 28.5q24 0 63 -23q36 -20 56 -20q14 0 21.5 9t8.5 34h40q0 -94 -69 -94q-25 0 -66 22q-44 22 -54 22 q-26 0 -31 -50h-40z" />
<glyph unicode="&#xd2;" horiz-adv-x="741" d="M42 372q0 184 94 291.5t240 107.5q145 0 234 -105t89 -280q0 -192 -95.5 -295t-236.5 -103q-142 0 -233.5 104t-91.5 280zM106 374q0 -86 29.5 -161t91 -124.5t142.5 -49.5q124 0 195 100t71 244q0 61 -16 119.5t-47 108t-83 79.5t-117 30q-67 0 -119.5 -30t-83.5 -80 t-47 -110t-16 -126zM207 927h89l109 -127h-52z" />
<glyph unicode="&#xd3;" horiz-adv-x="741" d="M42 372q0 184 94 291.5t240 107.5q145 0 234 -105t89 -280q0 -192 -95.5 -295t-236.5 -103q-142 0 -233.5 104t-91.5 280zM106 374q0 -86 29.5 -161t91 -124.5t142.5 -49.5q124 0 195 100t71 244q0 61 -16 119.5t-47 108t-83 79.5t-117 30q-67 0 -119.5 -30t-83.5 -80 t-47 -110t-16 -126zM337 800l109 127h89l-146 -127h-52z" />
<glyph unicode="&#xd4;" horiz-adv-x="741" d="M42 372q0 184 94 291.5t240 107.5q145 0 234 -105t89 -280q0 -192 -95.5 -295t-236.5 -103q-142 0 -233.5 104t-91.5 280zM106 374q0 -86 29.5 -161t91 -124.5t142.5 -49.5q124 0 195 100t71 244q0 61 -16 119.5t-47 108t-83 79.5t-117 30q-67 0 -119.5 -30t-83.5 -80 t-47 -110t-16 -126zM229 800l115 122h50l119 -122h-64l-78 81h-3l-78 -81h-61z" />
<glyph unicode="&#xd5;" horiz-adv-x="741" d="M42 372q0 184 94 291.5t240 107.5q145 0 234 -105t89 -280q0 -192 -95.5 -295t-235.5 -103q-143 0 -234.5 104t-91.5 280zM106 374q0 -86 29.5 -161t91 -124.5t142.5 -49.5q124 0 195 100t71 244q0 61 -16 119.5t-47 108t-83 79.5t-117 30q-67 0 -119.5 -30t-83.5 -80 t-47 -110t-16 -126zM241 806q-1 43 18 71.5t53 28.5q24 0 63 -23q36 -20 56 -20q14 0 21.5 9t8.5 34h40q0 -94 -69 -94q-25 0 -66 22q-44 22 -54 22q-26 0 -31 -50h-40z" />
<glyph unicode="&#xd6;" horiz-adv-x="741" d="M42 372q0 184 94 291.5t240 107.5q145 0 234 -105t89 -280q0 -192 -95.5 -295t-236.5 -103q-142 0 -233.5 104t-91.5 280zM106 374q0 -86 29.5 -161t91 -124.5t142.5 -49.5q124 0 195 100t71 244q0 61 -16 119.5t-47 108t-83 79.5t-117 30q-67 0 -119.5 -30t-83.5 -80 t-47 -110t-16 -126zM229 863q0 19 13 33t31 14q20 0 32.5 -13.5t12.5 -33.5t-12 -33.5t-32 -13.5q-21 0 -33 14t-12 33zM424 863q0 19 13 33t31 14q20 0 32 -13.5t12 -33.5t-12 -33.5t-32 -13.5q-21 0 -32.5 14t-11.5 33z" />
<glyph unicode="&#xd7;" d="M182 90l284 284l-284 282l36 35l282 -283l283 283l35 -34l-283 -283l283 -284l-35 -34l-283 283l-283 -283z" />
<glyph unicode="&#xd8;" horiz-adv-x="741" d="M42 374q0 184 94.5 290.5t238.5 106.5q111 0 194 -68l66 90l40 -27l-70 -98q94 -107 94 -281q0 -99 -27.5 -177.5t-74.5 -125.5t-104.5 -71.5t-120.5 -24.5q-120 0 -201 71l-70 -93l-36 28l71 100q-94 107 -94 280zM105 380q0 -126 65 -234h3l363 509q-70 65 -164 65 q-53 0 -97.5 -20t-75.5 -53t-52.5 -77t-31.5 -92t-10 -98zM203 107q68 -68 167 -68q83 0 144.5 49.5t91 126.5t29.5 168q0 133 -64 231h-3z" />
<glyph unicode="&#xd9;" horiz-adv-x="695" d="M89 296v463h62v-461q0 -132 53 -195.5t139 -63.5q94 0 147.5 64.5t53.5 194.5v461h62v-456q0 -162 -74 -238.5t-192 -76.5q-111 0 -181 73t-70 235zM184 927h89l109 -127h-52z" />
<glyph unicode="&#xda;" horiz-adv-x="695" d="M89 296v463h62v-460q0 -133 53 -196.5t139 -63.5q94 0 147.5 64.5t53.5 195.5v460h62v-456q0 -162 -74 -238.5t-192 -76.5q-111 0 -181 73t-70 235zM314 800l109 127h88l-145 -127h-52z" />
<glyph unicode="&#xdb;" horiz-adv-x="695" d="M89 296v463h62v-460q0 -133 53 -196.5t139 -63.5q94 0 147.5 64.5t53.5 195.5v460h62v-456q0 -162 -74 -238.5t-192 -76.5q-111 0 -181 73t-70 235zM206 800l115 122h50l119 -122h-64l-78 81h-3l-78 -81h-61z" />
<glyph unicode="&#xdc;" horiz-adv-x="695" d="M89 296v462h62v-460q0 -132 53 -195.5t139 -63.5q94 0 147.5 64.5t53.5 194.5v460h62v-455q0 -163 -74 -239t-192 -76q-111 0 -181 73t-70 235zM206 863q0 19 13 33t31 14q20 0 32.5 -13.5t12.5 -33.5t-12 -33.5t-32 -13.5q-21 0 -33 14t-12 33zM402 863q0 19 13 33 t31 14q20 0 32 -13.5t12 -33.5t-12 -33.5t-32 -13.5q-21 0 -32.5 14t-11.5 33z" />
<glyph unicode="&#xdd;" horiz-adv-x="566" d="M17 759h70l117 -221q66 -126 83 -163h3q23 52 84 164l122 220h70l-251 -431v-328h-62v328zM249 800l109 127h89l-146 -127h-52z" />
<glyph unicode="&#xde;" horiz-adv-x="561" d="M89 0v759h61v-154q57 10 111 10q74 0 127 -20t78 -52.5t35.5 -64t10.5 -64.5q0 -108 -75.5 -169t-199.5 -61q-48 0 -87 6v-190h-61zM150 243q37 -8 88 -8q100 0 155.5 45t55.5 126q0 79 -51.5 118.5t-140.5 39.5q-67 0 -107 -10v-311z" />
<glyph unicode="&#xdf;" horiz-adv-x="572" d="M87 0v521q0 170 77 240q56 50 145 50q73 0 125 -47t52 -133q0 -52 -25 -93q-89 -33 -89 -97q0 -31 15 -53t51 -57q31 -32 46 -50t30 -51.5t15 -69.5q0 -77 -51 -124.5t-136 -47.5q-65 0 -117 25l16 51q50 -25 102 -25q59 0 92.5 32t33.5 80q0 41 -17 71.5t-54 63.5 q-44 40 -65 72.5t-21 73.5q0 87 104 137q10 23 10 53q0 67 -35.5 102.5t-93.5 35.5q-75 0 -111.5 -56.5t-36.5 -184.5v-519h-62z" />
<glyph unicode="&#xe0;" horiz-adv-x="508" d="M42 138q0 96 82.5 147.5t240.5 50.5q0 24 -1 39t-8 42.5t-19.5 43.5t-39.5 29.5t-65 13.5q-77 0 -133 -40l-18 44q70 46 159 46q187 0 187 -214v-211q0 -82 7 -129h-57l-7 75h-3q-22 -36 -66 -61.5t-101 -25.5q-75 0 -116.5 44.5t-41.5 105.5zM107 147q0 -53 29.5 -81 t73.5 -28q41 0 73 15.5t49 38.5t25.5 44.5t8.5 38.5v112q-51 0 -89.5 -4.5t-81 -18t-65.5 -43t-23 -74.5zM122 776h83l99 -157h-46z" />
<glyph unicode="&#xe1;" horiz-adv-x="508" d="M42 138q0 96 82.5 147.5t240.5 50.5q0 24 -1 39t-8 42.5t-19.5 43.5t-39.5 29.5t-65 13.5q-77 0 -133 -40l-18 44q70 46 159 46q187 0 187 -214v-211q0 -82 7 -129h-57l-7 75h-3q-22 -36 -66 -61.5t-101 -25.5q-75 0 -116.5 44.5t-41.5 105.5zM107 147q0 -53 29.5 -81 t73.5 -28q41 0 73 15.5t49 38.5t25.5 44.5t8.5 38.5v112q-51 0 -89.5 -4.5t-81 -18t-65.5 -43t-23 -74.5zM214 619l100 157h83l-136 -157h-47z" />
<glyph unicode="&#xe2;" horiz-adv-x="508" d="M42 138q0 96 82.5 147.5t240.5 50.5q0 24 -1 39t-8 42.5t-19.5 43.5t-39.5 29.5t-65 13.5q-77 0 -133 -40l-18 44q70 46 159 46q187 0 187 -214v-211q0 -82 7 -129h-57l-7 75h-3q-22 -36 -66 -61.5t-101 -25.5q-75 0 -116.5 44.5t-41.5 105.5zM107 147q0 -53 29.5 -81 t73.5 -28q41 0 73 15.5t49 38.5t25.5 44.5t8.5 38.5v112q-51 0 -89.5 -4.5t-81 -18t-65.5 -43t-23 -74.5zM129 619l102 157h45l104 -157h-57l-68 111h-3l-69 -111h-54z" />
<glyph unicode="&#xe3;" horiz-adv-x="508" d="M42 138q0 96 82.5 147.5t240.5 50.5q0 24 -1 39t-8 42.5t-19.5 43.5t-39.5 29.5t-65 13.5q-77 0 -133 -40l-18 44q70 46 159 46q187 0 187 -214v-211q0 -82 7 -129h-57l-7 75h-3q-22 -36 -66 -61.5t-101 -25.5q-75 0 -116.5 44.5t-41.5 105.5zM107 147q0 -53 29.5 -81 t73.5 -28q41 0 73 15.5t49 38.5t25.5 44.5t8.5 38.5v112q-51 0 -89.5 -4.5t-81 -18t-65.5 -43t-23 -74.5zM127 643q0 48 18 75t51 27q18 0 67 -26q36 -18 48 -18q28 0 31 47h39q0 -98 -68 -98q-25 0 -64 23q-40 21 -51 21q-27 0 -30 -51h-41z" />
<glyph unicode="&#xe4;" horiz-adv-x="508" d="M42 138q0 96 82.5 147.5t240.5 50.5q0 24 -1 39t-8 42.5t-19.5 43.5t-39.5 29.5t-65 13.5q-77 0 -133 -40l-18 44q70 46 159 46q187 0 187 -214v-211q0 -82 7 -129h-57l-7 75h-3q-22 -36 -66 -61.5t-101 -25.5q-75 0 -116.5 44.5t-41.5 105.5zM107 147q0 -53 29.5 -81 t73.5 -28q41 0 73 15.5t49 38.5t25.5 44.5t8.5 38.5v112q-51 0 -89.5 -4.5t-81 -18t-65.5 -43t-23 -74.5zM114 695q0 19 13 32.5t32 13.5q18 0 30.5 -13.5t12.5 -32.5t-12 -32.5t-31 -13.5q-21 0 -33 13.5t-12 32.5zM306 695q0 19 13 32.5t32 13.5t31.5 -13.5t12.5 -32.5 t-12 -32.5t-32 -13.5q-21 0 -33 13.5t-12 32.5z" />
<glyph unicode="&#xe5;" horiz-adv-x="508" d="M42 138q0 96 82.5 147.5t240.5 50.5q0 24 -1 39t-8 42.5t-19.5 43.5t-39.5 29.5t-65 13.5q-77 0 -133 -40l-18 44q70 46 159 46q187 0 187 -214v-211q0 -82 7 -129h-57l-7 75h-3q-22 -36 -66 -61.5t-101 -25.5q-75 0 -116.5 44.5t-41.5 105.5zM107 147q0 -53 29.5 -81 t73.5 -28q41 0 73 15.5t49 38.5t25.5 44.5t8.5 38.5v112q-51 0 -89.5 -4.5t-81 -18t-65.5 -43t-23 -74.5zM149 704q0 44 31 72.5t76 28.5q46 0 74.5 -29t28.5 -72q0 -42 -31 -71.5t-73 -29.5q-45 0 -75.5 29.5t-30.5 71.5zM196 704q0 -26 16.5 -45.5t41.5 -19.5q27 0 44 19 t17 47t-17 46.5t-44 18.5t-42.5 -19.5t-15.5 -46.5z" />
<glyph unicode="&#xe6;" horiz-adv-x="837" d="M43 135q0 93 83 145t241 49v27q0 18 -5 39t-17.5 47.5t-41.5 43.5t-71 17q-81 0 -133 -40l-18 44q71 47 155 47q141 0 169 -127h2q25 59 74 93t113 34q47 0 84 -18.5t58 -45.5t34.5 -61t18 -62t4.5 -52q0 -21 -3 -35h-365q-4 -117 47 -179.5t136 -62.5q83 0 140 32 l17 -47q-63 -35 -163 -35q-71 0 -126 34.5t-75 95.5h-3q-21 -61 -74.5 -95.5t-122.5 -34.5q-76 0 -117 43.5t-41 103.5zM106 141q0 -48 30 -75.5t75 -27.5q73 0 114.5 45t41.5 107v92q-261 7 -261 -141zM425 328h305q1 28 -6.5 57.5t-23.5 57t-45 45t-67 17.5 q-73 0 -116 -55.5t-47 -121.5z" />
<glyph unicode="&#xe7;" horiz-adv-x="491" d="M45 265q0 127 77 208t199 81h1q86 0 136 -32l-20 -50q-53 31 -121 31q-99 0 -154 -67.5t-55 -166.5q0 -103 57 -166t147 -63q60 0 129 31l14 -49q-66 -33 -153 -33q-4 0 -13 0.5t-13 0.5l-32 -51q33 -4 55.5 -24t22.5 -51q0 -45 -30 -66.5t-77 -21.5q-39 0 -70 19l14 39 q25 -16 60 -16q22 0 37.5 10.5t14.5 30.5q-1 42 -87 51l52 87q-88 20 -139.5 92t-51.5 176z" />
<glyph unicode="&#xe8;" horiz-adv-x="538" d="M45 261q0 132 67 212.5t173 80.5q49 0 87.5 -18t60.5 -44.5t36.5 -61t19.5 -64t5 -58.5q0 -12 -2 -36h-386q0 -119 55.5 -176t142.5 -57q83 0 145 30l15 -46q-63 -34 -168 -34q-115 0 -183 75.5t-68 196.5zM109 320h322q0 32 -7 62t-23 58.5t-47.5 46t-74.5 17.5 q-53 0 -91.5 -30t-56 -69.5t-22.5 -84.5zM137 776h84l98 -157h-45z" />
<glyph unicode="&#xe9;" horiz-adv-x="538" d="M45 261q0 132 67 212.5t173 80.5q49 0 87.5 -18t60.5 -44.5t36.5 -61t19.5 -64t5 -58.5q0 -12 -2 -36h-386q0 -119 55.5 -176t142.5 -57q83 0 145 30l15 -46q-63 -34 -168 -34q-115 0 -183 75.5t-68 196.5zM109 320h322q0 32 -7 62t-23 58.5t-47.5 46t-74.5 17.5 q-53 0 -91.5 -30t-56 -69.5t-22.5 -84.5zM230 619l99 157h83l-136 -157h-46z" />
<glyph unicode="&#xea;" horiz-adv-x="538" d="M45 261q0 132 67 212.5t173 80.5q49 0 87.5 -18t60.5 -44.5t36.5 -61t19.5 -64t5 -58.5q0 -12 -2 -36h-386q0 -119 55.5 -176t142.5 -57q83 0 145 30l15 -46q-63 -34 -168 -34q-115 0 -183 75.5t-68 196.5zM109 320h322q0 32 -7 62t-23 58.5t-47.5 46t-74.5 17.5 q-53 0 -91.5 -30t-56 -69.5t-22.5 -84.5zM144 619l102 157h45l104 -157h-57l-68 111h-3l-68 -111h-55z" />
<glyph unicode="&#xeb;" horiz-adv-x="538" d="M45 261q0 132 67 212.5t173 80.5q49 0 87.5 -18t60.5 -44.5t36.5 -61t19.5 -64t5 -58.5q0 -12 -2 -36h-386q0 -119 55.5 -176t142.5 -57q83 0 145 30l15 -46q-63 -34 -168 -34q-115 0 -183 75.5t-68 196.5zM109 320h322q0 32 -7 62t-23 58.5t-47.5 46t-74.5 17.5 q-53 0 -91.5 -30t-56 -69.5t-22.5 -84.5zM129 695q0 19 13 32.5t32 13.5q18 0 30.5 -13.5t12.5 -32.5t-12 -32.5t-31 -13.5q-21 0 -33 13.5t-12 32.5zM321 695q0 19 13 32.5t32 13.5t31.5 -13.5t12.5 -32.5t-12 -32.5t-32 -13.5q-21 0 -33 13.5t-12 32.5z" />
<glyph unicode="&#xec;" horiz-adv-x="237" d="M-14 776h83l99 -157h-46zM87 0v541h62v-541h-62z" />
<glyph unicode="&#xed;" horiz-adv-x="237" d="M78 619l99 157h83l-135 -157h-47zM87 0v541h62v-541h-62z" />
<glyph unicode="&#xee;" horiz-adv-x="237" d="M-7 619l101 157h46l104 -157h-57l-69 111h-2l-69 -111h-54zM87 0v541h62v-541h-62z" />
<glyph unicode="&#xef;" horiz-adv-x="237" d="M-22 695q0 19 13 32.5t32 13.5q18 0 30.5 -13.5t12.5 -32.5t-12 -32.5t-31 -13.5q-21 0 -33 13.5t-12 32.5zM87 0v542h62v-542h-62zM170 695q0 19 13 32.5t32 13.5t31.5 -13.5t12.5 -32.5t-12 -32.5t-32 -13.5q-21 0 -33 13.5t-12 32.5z" />
<glyph unicode="&#xf0;" horiz-adv-x="579" d="M45 265q0 130 72.5 208.5t167.5 78.5q85 0 145 -59l2 3q-53 95 -144 166l-156 -75l-17 39l134 65q-44 36 -120 75l28 45q80 -42 145 -93l136 69l19 -41l-118 -58q93 -78 143 -181q48 -101 48 -226q0 -145 -72.5 -219t-173.5 -74q-104 0 -171.5 75.5t-67.5 201.5zM108 266 q0 -95 51 -161.5t125 -66.5q78 0 130.5 65.5t52.5 169.5q0 115 -43 169q-51 61 -136 61q-46 0 -82.5 -22.5t-57 -58.5t-30.5 -76t-10 -80z" />
<glyph unicode="&#xf1;" horiz-adv-x="595" d="M83 541h56l5 -94h2q23 46 71 76.5t110 30.5q26 0 53.5 -8.5t59.5 -30.5t52.5 -70.5t20.5 -116.5v-328h-62v320q0 80 -33.5 131t-108.5 51q-67 0 -113.5 -50.5t-46.5 -116.5v-335h-62v409q0 48 -4 132zM170 643q0 48 18 75t51 27q19 0 68 -26q36 -18 48 -18q28 0 31 47h39 q0 -98 -68 -98q-24 0 -65 23q-40 21 -51 21q-27 0 -30 -51h-41z" />
<glyph unicode="&#xf2;" horiz-adv-x="590" d="M45 266q0 134 73.5 211t179.5 77q111 0 179 -77t68 -201q0 -73 -22.5 -130t-60 -90.5t-81.5 -50.5t-90 -17q-107 0 -176.5 76t-69.5 202zM108 269q0 -97 53 -164t132 -67q81 0 135 67.5t54 167.5q0 39 -11 78t-32 74t-58.5 57t-84.5 22q-92 0 -140 -70.5t-48 -164.5z M163 776h83l99 -157h-46z" />
<glyph unicode="&#xf3;" horiz-adv-x="590" d="M45 266q0 134 73.5 211t179.5 77q111 0 179 -77t68 -201q0 -73 -22.5 -130t-60 -90.5t-81.5 -50.5t-90 -17q-107 0 -176.5 76t-69.5 202zM108 269q0 -97 53 -164t132 -67q81 0 135 67.5t54 167.5q0 39 -11 78t-32 74t-58.5 57t-84.5 22q-92 0 -140 -70.5t-48 -164.5z M255 619l99 157h84l-136 -157h-47z" />
<glyph unicode="&#xf4;" horiz-adv-x="590" d="M45 266q0 134 73.5 211t179.5 77q111 0 179 -77t68 -201q0 -73 -22.5 -130t-60 -90.5t-81.5 -50.5t-90 -17q-107 0 -176.5 76t-69.5 202zM108 269q0 -97 53 -164t132 -67q81 0 135 67.5t54 167.5q0 39 -11 78t-32 74t-58.5 57t-84.5 22q-92 0 -140 -70.5t-48 -164.5z M170 619l102 157h45l104 -157h-57l-68 111h-3l-69 -111h-54z" />
<glyph unicode="&#xf5;" horiz-adv-x="590" d="M45 266q0 134 73.5 211t179.5 77q111 0 179 -77t68 -201q0 -73 -22.5 -130t-60 -90.5t-81.5 -50.5t-90 -17q-107 0 -176.5 76t-69.5 202zM108 269q0 -97 53 -164t132 -67q81 0 135 67.5t54 167.5q0 39 -11 78t-32 74t-58.5 57t-84.5 22q-92 0 -140 -70.5t-48 -164.5z M167 643q0 48 18 75t51 27q18 0 68 -26q36 -18 48 -18q28 0 31 47h39q0 -98 -68 -98q-24 0 -65 23q-40 21 -51 21q-27 0 -30 -51h-41z" />
<glyph unicode="&#xf6;" horiz-adv-x="590" d="M45 266q0 134 73.5 211t179.5 77q111 0 179 -77t68 -201q0 -73 -22.5 -130t-60 -90.5t-81.5 -50.5t-90 -17q-107 0 -176.5 76t-69.5 202zM108 269q0 -97 53 -164t132 -67q81 0 135 67.5t54 167.5q0 39 -11 78t-32 74t-58.5 57t-84.5 22q-92 0 -140 -70.5t-48 -164.5z M155 695q0 19 13 32.5t32 13.5q18 0 30.5 -13.5t12.5 -32.5t-12 -32.5t-31 -13.5q-21 0 -33 13.5t-12 32.5zM347 695q0 19 13 32.5t32 13.5t31.5 -13.5t12.5 -32.5t-12 -32.5t-32 -13.5q-21 0 -33 13.5t-12 32.5z" />
<glyph unicode="&#xf7;" d="M132 349v49h736v-49h-736zM436 117q0 26 19 45t45 19q27 0 45.5 -19.5t18.5 -44.5q0 -26 -19 -45t-45 -19t-45 19t-19 45zM436 630q0 26 19 45t45 19q27 0 45.5 -19.5t18.5 -44.5q0 -26 -19 -45t-45 -19t-45 19t-19 45z" />
<glyph unicode="&#xf8;" horiz-adv-x="590" d="M45 267q0 133 73 210t179 77q75 0 138 -43l44 62l36 -24l-46 -68q76 -79 76 -205q0 -140 -75.5 -214t-174.5 -74q-83 0 -139 42l-46 -63l-34 28l46 65q-77 80 -77 207zM107 269q0 -95 47 -160h3l248 356q-44 39 -110 39q-63 0 -107.5 -37t-62.5 -88.5t-18 -109.5zM186 75 q43 -37 105 -37q85 0 138.5 67.5t53.5 168.5q0 87 -48 156h-2z" />
<glyph unicode="&#xf9;" horiz-adv-x="589" d="M83 223v318h62v-305q0 -195 135 -195q59 0 109 44.5t50 118.5v338h62v-406q0 -68 5 -136h-57l-4 92h-3q-23 -42 -68.5 -73t-110.5 -31q-31 0 -59.5 9.5t-57.5 33.5t-46 73t-17 119zM163 776h83l98 -157h-45z" />
<glyph unicode="&#xfa;" horiz-adv-x="589" d="M83 223v318h62v-305q0 -195 135 -195q59 0 109 44.5t50 118.5v338h62v-406q0 -68 5 -136h-57l-4 92h-3q-23 -42 -68.5 -73t-110.5 -31q-31 0 -59.5 9.5t-57.5 33.5t-46 73t-17 119zM255 619l99 157h83l-136 -157h-46z" />
<glyph unicode="&#xfb;" horiz-adv-x="589" d="M83 223v318h62v-305q0 -195 135 -195q59 0 109 44.5t50 118.5v338h62v-406q0 -68 5 -136h-57l-4 92h-3q-23 -42 -68.5 -73t-110.5 -31q-31 0 -59.5 9.5t-57.5 33.5t-46 73t-17 119zM170 619l101 157h45l104 -157h-57l-68 111h-3l-68 -111h-54z" />
<glyph unicode="&#xfc;" horiz-adv-x="589" d="M83 223v318h62v-305q0 -195 135 -195q59 0 109 44.5t50 118.5v338h62v-406q0 -68 5 -136h-57l-4 92h-3q-23 -42 -68.5 -73t-110.5 -31q-31 0 -59.5 9.5t-57.5 33.5t-46 73t-17 119zM155 695q0 19 13 32.5t32 13.5q18 0 30.5 -13.5t12.5 -32.5t-12 -32.5t-31 -13.5 q-21 0 -33 13.5t-12 32.5zM347 695q0 19 13 32.5t32 13.5t31.5 -13.5t12.5 -32.5t-12 -32.5t-32 -13.5q-21 0 -33 13.5t-12 32.5z" />
<glyph unicode="&#xfd;" horiz-adv-x="493" d="M13 541h66l134 -345q20 -55 38 -117h2q13 41 39 119l124 343h66l-154 -394q-23 -60 -37.5 -95t-36.5 -82.5t-41 -76.5t-44.5 -60t-55 -50.5t-64.5 -30.5l-19 52q58 21 103.5 72t63.5 89.5t18 51.5q0 7 -6 23zM207 619l99 157h83l-136 -157h-46z" />
<glyph unicode="&#xfe;" horiz-adv-x="612" d="M87 -222v971h62v-300h2q62 105 190 105q99 0 162.5 -76.5t63.5 -198.5q0 -141 -71 -216t-171 -75q-116 0 -174 95h-2v-305h-62zM149 210q0 -69 49.5 -120t126.5 -51q81 0 130.5 65t49.5 174q0 94 -48.5 159.5t-131.5 65.5q-74 0 -125 -58t-51 -130v-105z" />
<glyph unicode="&#xff;" horiz-adv-x="493" d="M13 542h67l133 -346q28 -78 38 -117h2q19 60 40 119l123 344h66l-154 -395q-54 -141 -93 -216.5t-87 -119.5q-49 -42 -99 -59l-19 52q39 15 72 42t53 54t34.5 53.5t20 43t5.5 20.5q0 11 -6 23zM107 695q0 19 13 32.5t32 13.5q18 0 30.5 -13.5t12.5 -32.5t-12 -32.5 t-31 -13.5q-21 0 -33 13.5t-12 32.5zM299 695q0 19 13 32.5t32 13.5t31.5 -13.5t12.5 -32.5t-12 -32.5t-32 -13.5q-21 0 -33 13.5t-12 32.5z" />
<glyph unicode="&#x131;" horiz-adv-x="237" d="M87 0v542h62v-542h-62z" />
<glyph unicode="&#x152;" horiz-adv-x="960" d="M42 375q0 186 100.5 291t260.5 105q28 0 93 -5q60 -6 72 -7h337v-52h-313v-282h295v-52h-295v-321h330v-52h-361q-20 -1 -75 -7q-47 -5 -90 -5q-163 0 -258.5 108t-95.5 279zM106 379q0 -157 81 -248.5t221 -91.5q77 0 122 16v648q-54 17 -131 17q-138 0 -215.5 -94.5 t-77.5 -246.5z" />
<glyph unicode="&#x153;" horiz-adv-x="948" d="M45 266q0 131 71 209.5t175 78.5q73 0 129 -38.5t79 -106.5h2q28 71 79.5 108t118.5 37q48 0 86 -18.5t60 -45t36 -61.5t18.5 -64t4.5 -56q0 -28 -1 -37h-373q-1 -113 51.5 -173.5t140.5 -60.5q66 0 139 31l16 -46q-62 -35 -163 -35q-159 0 -216 143h-3 q-26 -70 -83 -106.5t-125 -36.5q-106 0 -174 76t-68 202zM108 269q0 -97 52.5 -164t129.5 -67q81 0 131 65t50 167q0 94 -46 164t-135 70q-49 0 -86 -22.5t-57 -59.5t-29.5 -75.5t-9.5 -77.5zM530 321h311q1 42 -10.5 81.5t-47 71t-89.5 31.5q-51 0 -88.5 -30t-54.5 -69.5 t-21 -84.5z" />
<glyph unicode="&#x178;" horiz-adv-x="566" d="M17 759h70l117 -221q65 -124 83 -164h3q22 53 84 165l122 220h70l-251 -432v-327h-62v328zM142 863q0 19 13 33t31 14q20 0 32.5 -13.5t12.5 -33.5t-12 -33.5t-32 -13.5q-21 0 -33 14t-12 33zM337 863q0 19 13 33t31 14q20 0 32 -13.5t12 -33.5t-12 -33.5t-32 -13.5 q-21 0 -32.5 14t-11.5 33z" />
<glyph unicode="&#x192;" horiz-adv-x="545" d="M1 -74l15 46q32 -15 67 -15q53 0 80 50t38 143l29 259h-109v48h115l8 60q30 242 197 242q38 0 69 -17l-14 -45q-33 12 -59 12q-60 0 -93 -53.5t-41 -134.5l-6 -64h142v-48h-149l-30 -254q-14 -122 -55 -185t-125 -63q-43 0 -79 19z" />
<glyph unicode="&#x3a9;" d="M131 0v51h181v4q-70 54 -117 144.5t-47 198.5q0 163 102 268t256 105q156 0 251.5 -104.5t95.5 -260.5q0 -112 -46 -203t-118 -148v-4h181v-51h-271v43q81 49 136 145t55 211q0 80 -32 152t-99.5 121t-155.5 49q-91 0 -159.5 -49t-101 -121.5t-32.5 -153.5 q0 -110 56.5 -208.5t133.5 -145.5v-43h-269z" />
<glyph unicode="&#x3c0;" d="M177 -10q90 112 158 377q22 81 33 126q-98 0 -138 -12l-3 37q39 23 150 23h446l-13 -48h-97l-63 -346q-13 -69 -13 -114q0 -27 6 -43h-56q-7 12 -7 43q0 35 12 109l64 351h-232q-32 -127 -50.5 -195t-56.5 -164.5t-77 -143.5h-63z" />
<glyph unicode="&#x2000;" horiz-adv-x="489" vert-adv-y="0" />
<glyph unicode="&#x2001;" horiz-adv-x="979" vert-adv-y="0" />
<glyph unicode="&#x2002;" horiz-adv-x="500" />
<glyph unicode="&#x2003;" horiz-adv-x="979" vert-adv-y="0" />
<glyph unicode="&#x2004;" horiz-adv-x="326" vert-adv-y="0" />
<glyph unicode="&#x2005;" horiz-adv-x="244" vert-adv-y="0" />
<glyph unicode="&#x2006;" horiz-adv-x="163" vert-adv-y="0" />
<glyph unicode="&#x2007;" horiz-adv-x="163" vert-adv-y="0" />
<glyph unicode="&#x2008;" horiz-adv-x="122" vert-adv-y="0" />
<glyph unicode="&#x2009;" horiz-adv-x="195" vert-adv-y="0" />
<glyph unicode="&#x200a;" horiz-adv-x="54" vert-adv-y="0" />
<glyph unicode="&#x2010;" d="M375 361v38h250v-38h-250z" />
<glyph unicode="&#x2011;" horiz-adv-x="337" d="M34 281v52h269v-52h-269z" />
<glyph unicode="&#x2013;" horiz-adv-x="564" d="M34 263v48h496v-48h-496z" />
<glyph unicode="&#x2014;" horiz-adv-x="1126" d="M34 263v48h1058v-48h-1058z" />
<glyph unicode="&#x2015;" d="M0 361v38h1000v-38h-1000z" />
<glyph unicode="&#x2016;" d="M408 -120v1000h32v-1000h-32zM560 -120v1000h32v-1000h-32z" />
<glyph unicode="&#x2018;" horiz-adv-x="202" d="M42 524q15 61 44.5 140.5t46.5 108.5l42 6q-14 -39 -33 -114.5t-27 -129.5z" />
<glyph unicode="&#x2019;" horiz-adv-x="202" d="M42 524q15 40 34 116t26 128l73 11q-15 -62 -44 -141t-46 -108z" />
<glyph unicode="&#x201a;" horiz-adv-x="202" d="M26 -140q14 39 33 114.5t27 129.5l73 11q-15 -61 -44.5 -140.5t-46.5 -108.5z" />
<glyph unicode="&#x201c;" horiz-adv-x="342" d="M43 524q15 60 44 139.5t46 109.5l43 6q-15 -39 -34 -114.5t-26 -129.5zM183 524q15 61 44.5 140.5t46.5 108.5l42 6q-14 -39 -33 -114.5t-27 -129.5z" />
<glyph unicode="&#x201d;" horiz-adv-x="342" d="M42 524q15 40 34 116t26 128l73 11q-15 -60 -44 -139.5t-46 -109.5zM182 524q15 38 34 114t27 130l72 11q-15 -62 -44 -141t-46 -108z" />
<glyph unicode="&#x201e;" horiz-adv-x="342" d="M26 -140q14 39 33 114.5t27 129.5l72 11q-15 -62 -44 -141t-46 -108zM166 -140q14 39 33 114.5t27 129.5l72 11q-15 -62 -44 -141t-46 -108z" />
<glyph unicode="&#x2020;" d="M266 462v53l211 -4l-6 248h58l-6 -248l211 4v-53l-211 4l6 -522h-58l6 522z" />
<glyph unicode="&#x2021;" d="M266 175v53l211 -4v253l-211 -4v53l211 -4l-6 237h58l-6 -237l211 4v-53l-211 4l1 -253l210 4v-53l-211 4l6 -235h-58l6 235z" />
<glyph unicode="&#x2022;" horiz-adv-x="286" d="M39 294q0 43 30.5 73.5t73.5 30.5t73.5 -30t30.5 -73t-30.5 -73.5t-73.5 -30.5q-44 0 -74 30.5t-30 72.5z" />
<glyph unicode="&#x2025;" d="M194 380q0 24 16 40t40 16q25 0 40.5 -16.5t15.5 -39.5q0 -24 -16 -40t-40 -16t-40 16t-16 40zM694 380q0 24 16 40t40 16q25 0 40.5 -16.5t15.5 -39.5q0 -24 -16 -40t-40 -16t-40 16t-16 40z" />
<glyph unicode="&#x2026;" d="M111 380q0 24 16 40t40 16q25 0 40.5 -16.5t15.5 -39.5q0 -24 -16 -40t-40 -16t-40 16t-16 40zM444 380q0 24 16 40t40 16q25 0 40.5 -16.5t15.5 -39.5q0 -24 -16 -40t-40 -16t-40 16t-16 40zM777 380q0 24 16 40t40 16q25 0 40.5 -16.5t15.5 -39.5q0 -24 -16 -40 t-40 -16t-40 16t-16 40z" />
<glyph unicode="&#x202f;" horiz-adv-x="195" vert-adv-y="0" />
<glyph unicode="&#x2030;" d="M36 521q0 107 37.5 163.5t91.5 56.5q56 0 92 -58t36 -163q0 -108 -37 -163t-91 -55t-91.5 56.5t-37.5 162.5zM81 521q0 -29 3.5 -57t11.5 -58t25.5 -48.5t42.5 -18.5t43 18.5t26.5 48.5t12 57.5t3.5 56.5t-3.5 57t-12 58t-26.5 49t-43 19h-1q-24 0 -41.5 -18.5t-25.5 -49 t-11.5 -58.5t-3.5 -56zM131 -18l382 766h42l-381 -766h-43zM393 209q0 107 37 163.5t91 56.5q56 0 92.5 -58t36.5 -163q0 -108 -37.5 -163.5t-91.5 -55.5q-53 0 -90.5 57t-37.5 163zM438 208q0 -29 3 -56.5t11.5 -58t26 -48.5t42.5 -18t43 18.5t26 48.5t11.5 57.5t3.5 56.5 t-3.5 57t-11.5 58.5t-26 49t-43 18.5h-1q-24 0 -41.5 -18.5t-25.5 -49t-11.5 -58.5t-3.5 -57zM707 209q0 107 37 163.5t91 56.5q56 0 92.5 -58t36.5 -163q0 -108 -37.5 -163.5t-91.5 -55.5t-91 57t-37 163zM751 208q0 -29 3.5 -57t11.5 -57.5t26 -48t43 -18.5t43 18.5 t26 48.5t11.5 57.5t3.5 56.5t-3.5 57t-12 58t-26.5 49t-43 19q-27 0 -45.5 -22t-25.5 -57t-9.5 -59t-2.5 -45z" />
<glyph unicode="&#x2032;" d="M38 562l110 287l62 -27l-140 -274z" />
<glyph unicode="&#x2033;" d="M38 562l109 287l59 -26l-139 -274zM220 562l110 287l59 -26l-139 -274z" />
<glyph unicode="&#x2039;" horiz-adv-x="275" d="M33 284l155 203h61l-156 -203l156 -203h-61z" />
<glyph unicode="&#x203a;" horiz-adv-x="275" d="M26 487h60l156 -203l-156 -203h-59l155 203z" />
<glyph unicode="&#x203b;" d="M140 49l331 331l-330 330l29 29l330 -330l330 330l29 -29l-330 -330l330 -330l-29 -29l-330 330l-331 -331zM140 380q0 31 22 53t53 22t53 -22t22 -53q0 -32 -22.5 -53.5t-52.5 -21.5q-31 0 -53 22t-22 53zM425 95q0 31 22 53t53 22q32 0 53.5 -22.5t21.5 -52.5 q0 -31 -22 -53t-53 -22t-53 22t-22 53zM425 665q0 31 22 53t53 22t53 -22t22 -53t-22 -53t-53 -22q-32 0 -53.5 22.5t-21.5 52.5zM710 380q0 32 22.5 53.5t52.5 21.5q31 0 53 -22t22 -53t-22 -53t-53 -22t-53 22t-22 53z" />
<glyph unicode="&#x203c;" d="M238 42q0 22 14 37.5t34 15.5t34.5 -15.5t14.5 -37.5t-14.5 -37.5t-34.5 -15.5q-21 0 -34.5 16t-13.5 37zM252 759h69l-11 -559h-46zM664 42q0 22 14.5 37.5t34.5 15.5t34 -15.5t14 -37.5t-14 -37.5t-34 -15.5q-21 0 -35 16t-14 37zM679 759h69l-12 -559h-46z" />
<glyph unicode="&#x203e;" horiz-adv-x="0" d="M-446 872v52h446v-52h-446z" />
<glyph unicode="&#x2044;" horiz-adv-x="464" d="M-7 -12l430 756h49l-430 -756h-49z" />
<glyph unicode="&#x2049;" d="M178 42q0 22 14.5 37.5t34.5 15.5t34.5 -15.5t14.5 -37.5t-14.5 -37.5t-34.5 -15.5q-21 0 -35 16t-14 37zM193 759h69l-11 -559h-47zM493 726q32 21 82 33t95 12q106 0 158 -46.5t52 -114.5q0 -53 -27.5 -97t-89.5 -102q-76 -70 -76 -148q0 -21 2 -31l5 -33h-56 q-7 48 -7 67q0 85 85 170q58 56 81 91.5t23 79.5q0 52 -41.5 84t-117.5 32q-85 0 -147 -39zM622 38q0 27 14.5 41.5t34.5 14.5q21 0 34 -15.5t13 -38.5q0 -21 -13 -36t-36 -15q-20 0 -33.5 14.5t-13.5 34.5z" />
<glyph unicode="&#x205f;" horiz-adv-x="244" vert-adv-y="0" />
<glyph unicode="&#x20ac;" horiz-adv-x="545" d="M15 297v44h63q0 49 3 77h-66v44h72q18 132 98 215t200 83q79 0 139 -38l-19 -47q-54 35 -123 35q-37 0 -72 -13t-68 -40.5t-58 -77.5t-35 -117h323v-44h-329q-3 -24 -3 -77h332v-44h-328q8 -70 32 -121.5t58 -80t70.5 -42t75.5 -13.5q64 0 135 42l18 -45 q-65 -49 -160 -49q-120 0 -199 82.5t-92 226.5h-67z" />
<glyph unicode="&#x2122;" horiz-adv-x="671" d="M27 722v37h247v-37h-101v-269h-44v269h-102zM290 453l24 306h65l67 -186q5 -13 12 -37.5t9 -29.5h2q4 13 11 39l8 26l68 188h65l26 -306h-46l-13 203q0 4 -1.5 29t-2.5 41h-2q-4 -11 -13 -39t-12 -38l-67 -191h-49l-67 196q-11 31 -22 72h-3q0 -45 -2 -70l-14 -203h-43z " />
<glyph unicode="&#x2202;" d="M231 199q0 110 76 189.5t169 79.5q82 0 136 -40.5t79 -99.5h2q24 90 24 166q0 109 -44.5 165.5t-123.5 56.5q-57 0 -100.5 -30.5t-67.5 -66.5l-30 32q80 108 199 108q101 0 160.5 -67.5t59.5 -190.5q0 -131 -41.5 -247.5t-120 -191.5t-176.5 -75q-95 0 -148 59.5 t-53 152.5zM282 194q0 -72 40 -118t113 -46q68 2 128.5 56.5t102.5 159.5q-1 76 -53 127.5t-127 51.5q-76 0 -140 -71t-64 -160z" />
<glyph unicode="&#x2211;" d="M202 0v38l311 339l-293 342v40h537v-49h-457v-3l282 -329l-297 -325v-4h513v-49h-596z" />
<glyph unicode="&#x221a;" d="M38 116l131 186l101 -267l294 845h436v-38h-409l-321 -924h-30l-106 281l-71 -101z" />
<glyph unicode="&#x221e;" d="M38 373q0 91 61 142.5t139 51.5q140 0 262 -155q122 155 262 155q78 0 139 -51.5t61 -142.5q0 -90 -61 -142t-139 -52q-139 0 -262 156q-123 -156 -262 -156q-79 0 -139.5 52.5t-60.5 141.5zM87 373q0 -66 45 -105t106 -39q117 0 230 144q-113 145 -230 145 q-61 0 -106 -39t-45 -106zM532 373q114 -144 230 -144q61 0 106 39t45 105q0 68 -45.5 106.5t-105.5 38.5q-117 0 -230 -145z" />
<glyph unicode="&#x222b;" d="M323 -79l4 48q13 -3 28 -3q18 0 31.5 2.5t30.5 13.5t28.5 29.5t19.5 54.5t8 86v458q0 232 169 232q20 0 35 -3l-4 -48q-13 3 -28 3q-18 0 -31.5 -2.5t-30.5 -13.5t-28.5 -29.5t-19.5 -54.5t-8 -86v-458q0 -232 -169 -232q-20 0 -35 3z" />
<glyph unicode="&#x2260;" d="M132 244v49h312l57 155h-369v49h387l83 231l47 -17l-78 -214h297v-49h-315l-56 -155h371v-49h-388l-82 -225l-47 17l75 208h-294z" />
<glyph unicode="&#xfb01;" horiz-adv-x="545" d="M16 492v49h77v35q0 108 53.5 171.5t157.5 63.5q31 0 68 -10.5t57 -25.5l-25 -48q-47 33 -109 33q-140 0 -140 -188v-31h303v-541h-62v492h-241v-492h-62v492h-77z" />
<glyph unicode="&#xfb02;" horiz-adv-x="545" d="M16 492v49h77v24q0 67 20 119.5t73 89t135 36.5q80 0 137 -30v-780h-62v743q-36 17 -88 17q-81 0 -117 -52.5t-36 -135.5v-31h139v-49h-139v-492h-62v492h-77z" />
</font>
</defs>
</svg>
